<?xml version="1.0" encoding="UTF-8"?>
<svg version="1.1" xmlns="http://www.w3.org/2000/svg" width="32" height="32">
<path d="M0 0 C4.8846525 2.26787438 7.73212562 5.1153475 10 10 C10.75381535 15.5997712 10.77303575 20.33499991 8.375 25.5 C3.80134327 30.3143755 0.6912538 32.25156236 -6 32.5 C-12.6912538 32.25156236 -15.80134327 30.3143755 -20.375 25.5 C-22.77303575 20.33499991 -22.75381535 15.5997712 -22 10 C-17.52212837 0.3553534 -9.85292056 -1.32635469 0 0 Z " fill="#A6A6A6" transform="translate(22,0)"/>
<path d="M0 0 C3.96 0 7.92 0 12 0 C12 6.75 12 6.75 10 10 C8.68 10 7.36 10 6 10 C5.71125 10.5775 5.4225 11.155 5.125 11.75 C4.08333333 13.83333333 3.04166667 15.91666667 2 18 C5.3 18 8.6 18 12 18 C12 18.66 12 19.32 12 20 C8.04 20 4.08 20 0 20 C0 15 0 15 1.4375 13.4375 C1.953125 12.963125 2.46875 12.48875 3 12 C3.71447643 9.89667109 3.71447643 9.89667109 4 8 C5.32 8 6.64 8 8 8 C8.66 6.02 9.32 4.04 10 2 C6.7 2 3.4 2 0 2 C0 1.34 0 0.68 0 0 Z " fill="#010101" transform="translate(10,6)"/>
<path d="M0 0 C0.66 1.32 1.32 2.64 2 4 C1.01 5.485 1.01 5.485 0 7 C-3.125 7.1875 -3.125 7.1875 -6 7 C-5.38125 6.95875 -4.7625 6.9175 -4.125 6.875 C-3.42375 6.58625 -2.7225 6.2975 -2 6 C-0.6954344 3.00384054 -0.6954344 3.00384054 0 0 Z " fill="#171717" transform="translate(20,8)"/>
</svg>
